<?xml version="1.0" standalone="no"?>
<!DOCTYPE svg PUBLIC "-//W3C//DTD SVG 1.1//EN" "http://www.w3.org/Graphics/SVG/1.1/DTD/svg11.dtd">
<svg xmlns="http://www.w3.org/2000/svg">
<metadata>Copyright (C) 2017 by original authors @ fontello.com</metadata>
<defs>
<font id="fontello" horiz-adv-x="1000" >
<font-face font-family="fontello" font-weight="400" font-stretch="normal" units-per-em="1000" ascent="850" descent="-150" />
<missing-glyph horiz-adv-x="1000" />
<glyph glyph-name="search" unicode="&#xe001;" d="M990-35l-181 181 0 0c64 93 98 210 73 333-34 181-181 328-362 357-294 49-553-210-504-509 29-181 176-328 357-362 127-24 245 10 333 73l0 0 181-181 0 0 103 108 0 0z m-832 436c0 162 132 294 294 294s294-132 294-294-133-294-294-294-294 132-294 294z" horiz-adv-x="1000" />

<glyph glyph-name="eye" unicode="&#xe002;" d="M500 677c-324 0-490-327-490-327s125-327 490-327c330 0 490 325 490 325s-161 329-490 329z m1-531c-118 0-204 89-204 204 0 115 86 204 204 204s204-89 204-204c0-115-86-204-204-204z m0 326c-68 0-122-57-122-122 0-66 55-122 122-122s122 56 122 122c0 66-55 123-122 122z" horiz-adv-x="1000" />

<glyph glyph-name="arrow-left" unicode="&#xe003;" d="M745 840l-490-490 490-490v980z" horiz-adv-x="1000" />

<glyph glyph-name="line-clock" unicode="&#xe004;" d="M500 840c-270 0-490-220-490-490 0-270 220-490 490-490 270 0 490 220 490 490 0 270-220 490-490 490z m0-925c-240 0-435 195-435 435 0 240 195 435 435 435 240 0 435-195 435-435 0-240-195-435-435-435z m272 435h-272v272c0 22 0 54 0 54-22 0-54-32-54-54v-272c0-22 32-54 54-54h272c22 0 54 54 54 54s-32 0-54 0z" horiz-adv-x="1000" />

<glyph glyph-name="arrow-right" unicode="&#xe005;" d="M255-140l490 490-490 490v-980z" horiz-adv-x="1000" />

<glyph glyph-name="study" unicode="&#xe006;" d="M501 271c-15 0-29 1-44 4l-202 75v-234c0-61 23-110 246-110 223 0 246 49 246 110v235l-202-75c-15-4-30-5-44-5z m463 298l-431 121c-11 2-22 3-33 3-11 0-22-1-33-3l-431-121c-35-7-35-60 0-68l236-50 195-72c11-2 22-3 33-3 11 0 22 1 33 3l195 72 106 22v-258c-13-11-20-28-20-47 0-35 27-63 60-63 33 0 60 28 60 63 0 19-8 36-20 47v275l51 11c34 7 34 60-1 68z" horiz-adv-x="1000" />

<glyph glyph-name="line-glob" unicode="&#xe007;" d="M500 840c-269 0-490-221-490-490 0-270 221-490 490-490 270 0 490 220 490 490 0 269-220 490-490 490z m319-325c24 0 43-18 67-18-18-24-98-24-123 6 19 6 31 12 56 12z m-748-165c0 24 0 49 6 80 6 0 12-6 18-6 0 0 6-6 6-12 0-18 18-31 31-31 49-6 67-49 110-61 12-6 6-18 0-31-37-49-6-86 25-116 31-24 31-49 37-86 0-43 6-92 25-135-154 73-258 220-258 398z m429-429c-43 0-92 6-129 18-6 12-6 25 0 37 24 49 49 92 80 135 12 12 24 25 24 43 0 12 6 31 12 43 18 31 12 49-12 55-49 12-74 55-110 73-37 18-73 31-104 12-12-6-31-12-31 6 0 24-31 43-25 67-6 0-12 0-18-6-6-6-12-12-24-6-12 12-6 25-6 37 6 12 12 18 24 25 25 6 49 6 61-25 18 55 55 86 92 110 0 0 49 43 55 43 6 0 12-12 25-18 12 0 18 0 18 12 6 31-12 67-37 74 0 6 6 6 6 6 18 6 43 18 37 37 0 25-24 37-49 37-12 0-25 0-37-6-24-12-55-25-92-25 69 49 154 74 240 74 18 0 31 0 49 0-37-6-73-18-98-31 37-6 43-24 31-55-6-12 0-24 12-31 12-6 24-6 31 6 12 18 37 24 55 31 25 6 43 18 61 43 0 6 6 6 12 12 37-12 74-37 110-61-6 0-6-6-12-6-12-12-31-18-12-43 6-12 0-18-6-25-12-6-18 0-24 6-6 6-6 18-25 18-6-12-25-18-25-37 31 0 25-25 31-43-37-6-49-24-31-55 6-12-6-18-12-25-25-37-49-61-49-104 0-43 31-86 80-80 55 6 55 6 73-43 0-6 6-12 6-18 6-12 12-25 6-37-18-49 6-86 25-123 6-12 12-18 18-24-79-84-184-133-306-133z" horiz-adv-x="1000" />

<glyph glyph-name="man-1" unicode="&#xe008;" d="M324 424c9-58 54-132 128-158 30-11 64-11 94 0 73 26 120 100 129 158 10 1 23 14 37 63 19 67-1 77-18 75 3 9 6 18 7 27 29 174-57 180-57 180s-14 27-51 48c-25 15-60 26-106 22-15-1-29-4-42-8-17-6-33-14-47-24-18-10-34-24-48-39-23-23-43-53-52-90-7-28-6-57 0-88 2-9 4-18 7-27-17 2-37-8-18-75 15-49 27-63 37-64z m513-227c-104 26-189 86-189 86l-66-208-12-39 0 1-11-33-35 98c86 119-17 118-23 117-6 0-109 1-23-117l-35-98-11 33 0-1-12 39-66 208c0 0-85-59-189-86-78-20-82-109-78-153 0 0 4-60 9-86 0 0 152-98 407-98 255 0 407 98 407 98 5 26 9 86 9 86 0 44-4 134-82 153z" horiz-adv-x="1000" />

<glyph glyph-name="message" unicode="&#xe009;" d="M892 791h-784c-62 0-98-34-98-98v-490c0-64 36-98 98-98h539l196-196v196h49c62 0 98 34 98 98v490c0 64-36 98-98 98z m-588-392c-27 0-49 22-49 49 0 27 22 49 49 49 27 0 49-22 49-49 0-27-22-49-49-49z m196 0c-27 0-49 22-49 49 0 27 22 49 49 49 27 0 49-22 49-49 0-27-22-49-49-49z m196 98c27 0 49-22 49-49 0-27-22-49-49-49-27 0-49 22-49 49 0 27 22 49 49 49z" horiz-adv-x="1000" />

<glyph glyph-name="session_req" unicode="&#xe010;" d="M500 154l245 245h-196v392h-98v-392h-196l245-245z m343 0v-98h-686v98h-147v-127-118h980v245h-147z" horiz-adv-x="1000" />

<glyph glyph-name="error" unicode="&#xe011;" d="M703 840h-406l-287-287v-406l287-287h406l287 287v406l-287 287z m-203-779c-39 0-71 32-71 71 0 39 32 71 71 71 39 0 71-32 71-71 0-39-32-71-71-71z m54 235h-108v326h109v-326z" horiz-adv-x="1000" />

<glyph glyph-name="line-arrow-right" unicode="&#xe012;" d="M745 391v204l245-245-245-245v204h-735v82h735z" horiz-adv-x="1000" />

<glyph glyph-name="tick-mark" unicode="&#xe013;" d="M500 840c-271 0-490-219-490-490s219-490 490-490c271 0 490 219 490 490s-219 490-490 490z m0-910c-232 0-420 188-420 420 0 232 188 420 420 420 232 0 420-188 420-420 0-232-188-420-420-420z m-93 322l-105 105-47-47 152-152 338 338-47 47-291-291z" horiz-adv-x="1000" />

<glyph glyph-name="notify" unicode="&#xe014;" d="M500-140c66 0 123 42 123 122h-245c0-80 56-122 122-122z m286 327v245c0 152-65 252-204 286v40c0 40-44 82-82 82-38 0-82-42-82-82v-41c-139-34-204-134-204-286v-245l-123-90 0-74h817l0 74-122 91z m-82-82h-408v327c0 122 84 204 204 204 120 0 204-82 204-204l0-327z" horiz-adv-x="1000" />

<glyph glyph-name="calendar-fill" unicode="&#xe015;" d="M636 296h-109v-109h109v109z m0-164h-109v-109h109v109z m163 0h-108v-109h109v109z m-326 164h-109v-109h109v109z m326 0h-108v-109h109v109z m-762-436h926v599h-926v-599z m109 309l0 181h708l0-181v-200h-167l-50-1h-490l0 164v37z m163-37h-108v-109h109v109z m164 0h-109v-109h109v109z m381 599v109h-109c-10 0 15 0-54 0v-109h-382l0 109c0-10-44 0-54 0h-109v-109h-109v-218h926v218h-109z m-599 0h-54v55h54v-55z m544 0h-54v55h54v-55z m-490-435h-108v-109h109v109z" horiz-adv-x="1000" />

<glyph glyph-name="event" unicode="&#xe016;" d="M500 626c88-1 142 78 0 214-140-136-86-213 0-214z m-43-212h85v170h-85v-170z m402-43h-718c0 0-67 0-67-78v-343c0-89 89-89 89-89h674c0 0 89 0 89 89v343c0 78-67 78-67 78z m-18-223c-27-16-60-32-88-32-53 0-71 42-126 42-54 0-72-43-128-43-56 0-69 43-128 43-59 0-83-42-137-42-25 0-54 14-77 29v105c0 36 22 36 22 36h638c0 0 22 0 22-36v-102z" horiz-adv-x="1000" />

<glyph glyph-name="clock" unicode="&#xe017;" d="M500 840c-270 0-490-220-490-490 0-270 220-490 490-490 270 0 490 220 490 490 0 270-220 490-490 490z m273-545h-273c-22 0-55 32-55 55v273c0 22 32 55 55 55 0 0 0-32 0-55v-273h273c16 0 37-1 48-1 4 5 7 7 7 1 0 0-3-1-7-1-11-14-32-54-48-54z" horiz-adv-x="1000" />

<glyph glyph-name="calendar" unicode="&#xe018;" d="M835 812m155-911v826c0 1 0 1 0 1v33h-155v51h-154v-52h-362v52c0 0-20 0-29 0h-122c-1 0-2 0-3 0 0 0 0 0 0 0v-52h-155c0-42 0-25 0-34v-825-17h980v17z m-258 859h52v-52h-52v52z m-516 0h52v-52h-52v52z m722-825h-876v568h877v-568z m0 619h-876v155h103v-52h154l1 52h361v-52c66 0 42 0 52 0h103v52h103v-155z m-103 103m-670 155m0-155m464-619l48 1h159v189l0 171h-671l0-171v-34l0-155h464z m52 310h103v-103h-103v103z m0-155h103v-103h-103v103z m-155 155h103v-103h-103v103z m0-155h103v-103h-103v103z m-155 155h103v-103h-103v103z m0-155h103v-103h-103v103z m-155 155h103v-103h-103v103z m0-155h103v-103h-103v103z" horiz-adv-x="1000" />

<glyph glyph-name="flag" unicode="&#xe019;" d="M230 252v-343h49v-49h-147v49h49v788c-29 10-49 37-49 69 0 41 33 73 74 73 41 0 73-33 73-73 0-32-20-59-49-69v-53h637l-147-196 147-196h-637z" horiz-adv-x="1000" />

<glyph glyph-name="call" unicode="&#xe020;" d="M795-40c-20-20-41-39-60-61-28-31-63-41-102-39-58 3-111 22-162 47-114 56-212 133-293 230-60 72-110 150-143 238-16 43-27 86-24 133 2 28 13 53 34 73 23 22 44 44 66 66 29 29 66 28 95 0 18-18 36-36 53-53 17-17 35-34 52-52 30-31 30-66 0-97-22-22-43-44-66-65-6-6-6-10-3-17 14-35 36-66 59-95 47-58 101-110 166-151 14-9 29-15 43-23 7-4 13-3 18 3 22 22 44 44 66 66 29 29 66 29 94 0 36-35 71-71 106-106 31-31 31-67 1-97z m-336 589l11 81c79-11 150-47 206-103 53-53 88-121 101-194l-81-14c-10 57-37 109-78 151-43 43-98 70-159 79z m450-216c-18 106-68 202-145 279-80 80-182 131-295 147l12 81c130-18 248-77 341-170 88-88 146-200 168-323l-81-14z" horiz-adv-x="1000" />

<glyph glyph-name="book" unicode="&#xe021;" d="M54 791c0 0 0 0 0 0-12 0-23-4-31-13-8-7-13-18-13-30v-652c0-24 20-43 44-43 103 0 277-21 396-144v682c0 8-2 16-6 22-98 155-286 178-390 178z m923-12c-8 8-19 13-31 13 0 0 0 0 0 0-104 0-292-24-390-178-4-6-6-14-6-22v-683c120 122 293 144 396 144 25 0 44 20 44 43v652c0 12-5 23-13 31z" horiz-adv-x="1000" />

<glyph glyph-name="play" unicode="&#xe022;" d="M500 840c-271 0-490-219-490-490 0-271 219-490 490-490 271 0 490 219 490 490 0 271-219 490-490 490z m0-882c-216 0-392 175-392 392 0 216 175 392 392 392 216 0 392-175 392-392 0-216-176-392-392-392z m-107 585c-13 7-28-2-28-16v-354c0-14 16-24 28-16l305 177c13 8 13 26 0 33l-305 176z" horiz-adv-x="1000" />

<glyph glyph-name="pin" unicode="&#xe023;" d="M478-125c5-6 10-9 15-12l0 0 10-3 10 3 0 0c5 3 10 6 15 12 0 0 284 310 313 579 2 14 3 28 3 42-1 190-155 344-344 344-190 0-343-154-343-344 0-15 1-29 3-43 29-268 318-578 318-578z m22 818c108 0 196-88 196-196 0-108-88-196-196-196-108 0-196 88-196 196 0 108 88 196 196 196z" horiz-adv-x="1000" />

<glyph glyph-name="delete" unicode="&#xe024;" d="M867 742h-146v49c0 17-18 49-35 49-2 0-3-1-3-1-1 1-10 1-10 1h-344-11-2c-17 0-35-32-35-49v-49h-148c-38 0-49 2-49-35v-49-61l49-2v-686c0-38 39-49 77-49h582c38 0 77 11 77 49v686l49 2v61 49c-1 37-13 35-51 35z m-538 49h343v-49h-343v49z m489-882c0-4-45 0-49 0h-538c-4 0-49-4-49 0v686h637v-686z m49 735h-734v49h735v-49z m-195-147h-49v-490h49v490z m-148 0h-49v-490h49v490z m-146 0h-49v-490h49v490z" horiz-adv-x="1000" />

<glyph glyph-name="globe" unicode="&#xe025;" d="M178 665c174 178 459 181 637 7l-51-1c-11 0-20-9-20-20 0-11 9-20 20-20h0l98 1c11 0 20 9 20 20l-1 98c0 11-9 20-20 20-11 0-20-9-20-20l1-51c-193 191-504 187-692-6-66-67-111-151-130-242-18-89-12-181 19-267 3-8 11-13 19-13 2 0 4 0 7 1 10 4 16 15 12 25-60 164-21 344 101 468z m783-149c-4 10-15 16-25 12-10-4-16-15-12-25 59-164 20-343-102-467-84-87-197-135-317-136-120-1-234 44-320 128l51 1c11 0 20 9 20 20 0 11-9 20-20 20h0l-98-1c-5 0-10-2-14-6-4-4-6-9-6-14l1-98c0-11 9-20 20-20h0c11 0 20 9 20 20l-1 50c92-91 213-140 342-140h6c131 2 253 54 345 148 66 67 110 151 129 242 18 89 12 181-19 266z m-443 130c-2 0-4 0-6 0h-1c-1 0-2 0-4 0h-1c-2 0-4 0-7 0-39 0-77-8-113-23-73-30-130-87-160-160-30-73-30-154 0-227 46-110 154-182 274-182 2 0 3 0 5 0 1 0 2 0 3 0 0 0 1 0 1 0 2 0 3 0 5 0h2c1 0 1 0 2 0 33 2 65 9 96 22 73 30 130 87 160 160 30 73 30 154 0 227 0 0 0 0 0 0-44 106-143 176-256 183z m-121-61c-22-29-40-66-51-109h-69c26 48 68 86 120 109z m-139-149h79c-5-27-7-56-7-86 0-30 3-59 8-86h-79c-21 56-21 116-1 172z m18-211h71c12-44 31-82 54-112-52 22-97 61-125 112z m212-129c-41 12-78 62-99 128h99v-128z m0 168h-110c-5 27-8 56-8 86 0 30 3 59 8 86h110v-172z m0 212h-101c20 69 57 117 101 129v-129z m236 0h-55c-10 38-25 72-43 98 40-23 75-56 98-98z m-197 128c44-11 81-60 101-129h-101v129z m0-168h110c5-27 8-56 8-86 0-30-3-59-9-86h-109v172z m0-340v129h99c-21-67-58-117-99-129z m95 28c19 27 35 62 46 101h56c-24-43-59-78-102-101z m120 140h-65c5 27 8 56 8 86 0 30-2 59-7 86h64c20-56 20-116 0-172z" horiz-adv-x="1000" />

<glyph glyph-name="building" unicode="&#xe026;" d="M696 399h-147v0h441l-490 343-490-343h441v0h-147-147-98v-49h98v-294h-98v-98h392 98 392v98h-98v294h98v49h-98-147z m-392-343v294h147v-294h-147z m392 0h-147v294h147v-294z" horiz-adv-x="1000" />

<glyph glyph-name="fill-calendar" unicode="&#xe027;" d="M378 64h41v41h-41v-41z m204 204h41v41h-41v-41z m-368 572h-82v-82h82v82z m654 0h-82v-82h82v82z m-82-572h41v41h-41v-41z m122 531v-82h-163v82h-490v-82h-163v82h-82v-245h980v245h-82z m-898-939h980v653h-980v-653z m735 490h123v-123h-123v123z m-204 0h123v-123h-123v123z m0-204h123v-122h-123v122z m-204 204h122v-123h-122v123z m0-204h122v-122h-122v122z m-204 0h122v-122h-122v122z m245 122h41v41h-41v-41z m204-204h41v41h-41v-41z m-409 0h41v41h-41v-41z" horiz-adv-x="1000" />

<glyph glyph-name="phone" unicode="&#xe028;" d="M500 840c-270 0-490-220-490-490 0-270 220-490 490-490 131 0 256 53 348 145 15 15 14 41-2 56l-77 76c17 23 19 51 5 77-19 36-47 65-83 86-14 8-27 12-40 12-5 0-10-1-15-2-17-4-33-12-49-24-5-4-11-6-19-6-9 0-18 3-25 8-48 36-88 76-124 124-7 9-13 30-2 44 12 16 20 32 24 49 4 18 1 36-10 55-21 36-50 64-86 83-12 6-24 9-36 9-20 0-38-9-54-25-14-15-27-31-41-50-13-18-12-38-11-56l0 0c2-23 10-50 26-82 27-55 65-107 116-160 11-11 53-53 64-64 53-52 105-90 160-116 33-16 59-24 82-26l0 0c5 0 10 0 15 0 12 0 26 1 40 11l51-50c-73-59-163-92-258-92-224 0-407 183-407 408 0 225 183 408 408 408s408-183 408-408c0-23 18-41 41-41 23 0 41 18 41 41 0 270-220 490-490 490z" horiz-adv-x="1000" />

<glyph glyph-name="emoji" unicode="&#xe029;" d="M500 840c-270 0-490-220-490-490 0-270 220-490 490-490 270 0 490 220 490 490 0 270-220 490-490 490z m0-927c-120 0-229 49-308 127-32 31-58 68-79 107-32 61-50 129-50 202 0 242 196 438 437 438 114 0 218-44 296-116 40-37 74-82 98-132 27-57 43-121 43-188 0-242-196-438-437-438z m-167 548c28 0 52-22 52-52h53c0 60-47 105-105 105-58 0-105-45-105-105h53c0 30 23 52 52 52z m334 53c-58 0-105-45-105-105h53c0 30 23 52 52 52 28 0 52-22 52-52h53c0 60-47 105-105 105z m-196-381c-74 8-142 51-182 114l-44-29c49-76 131-127 221-137 11-1 23-2 34-2 102 0 201 52 257 139l-44 29c-53-80-148-125-242-114z" horiz-adv-x="1000" />

<glyph glyph-name="my_free_session" unicode="&#xe030;" d="M790 840h-22v-205c0-9-4-13-13-18-4 0-4 0-9 0s-9 0-13 4l-80 76-80-76c0-4-4-4-9-4s-4 0-9 0c-4 4-9 9-9 18v205h-224v-980h468c62 0 111 49 111 111v758c0 62-49 111-111 111z m-580 0c-62 0-111-49-111-111v-757c0-63 49-112 111-112h22v980h-22z" horiz-adv-x="1000" />

<glyph glyph-name="dashboard" unicode="&#xe031;" d="M990 355l-490 436-490-436v-54h98l0 0v-392h294v147c0 64 34 98 98 98s98-34 98-98v-147h294v392l0 0h98v54z" horiz-adv-x="1000" />

<glyph glyph-name="my_preferences" unicode="&#xe032;" d="M304 717h686v-147h-686v147z m0-294h686v-147h-686v147z m0-294h686v-147h-686v147z m-294 588h147v-147h-147v147z m0-294h147v-147h-147v147z m0-294h147v-147h-147v147z" horiz-adv-x="1000" />

<glyph glyph-name="mail-fill" unicode="&#xe033;" d="M88 653l353-280c16-13 38-18 60-17 21-1 43 5 59 17l353 280c28 22 22 41-14 41h-797c-36-1-43-19-14-41z m850-74l-386-293c-14-11-33-16-52-16-19 0-38 5-52 16l-386 293c-29 22-52 10-52-26v-481c0-36 29-65 65-65h849c36 0 65 29 65 65v481c1 36-22 48-51 26z" horiz-adv-x="1000" />

<glyph glyph-name="my_profile" unicode="&#xe034;" d="M500 840c122 0 221-99 221-220s-99-220-221-220-220 99-220 220 98 220 220 220z m73-490h-146c-162 0-294-142-294-314v-34c97-88 230-142 367-142s269 54 368 142v34c0 172-133 314-295 314z" horiz-adv-x="1000" />

<glyph glyph-name="share_exp" unicode="&#xe035;" d="M933 221c5 26 10 57 10 83 0 155-77 294-211 377-21 10-46 5-57-15-10-21-5-46 15-57 108-67 170-181 170-304 0-15 0-36-5-57-77 0-139-62-139-139s62-139 139-139 140 60 140 138c-5 46-26 87-62 113z m-263-253c-10 5-21 5-31 0-124-52-273-26-377 62 15 21 21 46 21 77 0 77-62 139-139 139s-139-61-139-138 62-139 139-139c15 0 31 5 46 10 83-78 191-119 305-119 57 0 113 10 170 31 10 5 21 10 21 21 5 10 5 21 0 31 0 15-5 25-16 25z m-572 320l0 0c26 0 41 15 46 41 10 144 103 263 237 309 21-46 67-72 119-72 77 0 139 62 139 139s-62 135-139 135c-67 0-129-52-134-119-170-56-294-211-304-386-6-26 15-47 36-47z" horiz-adv-x="1000" />

<glyph glyph-name="my_session" unicode="&#xe036;" d="M588 472c-10 15-20 20-34 25s-29 0-39-10l-162-132 15-25 29-54 15-25 162 137c29 21 34 60 14 84z m-578 270v-98h882v-588h-441v-98h539v784c0 0-720 0-980 0z m245-367c29 25 49 59 49 98 0 69-54 123-123 123s-122-55-122-124 54-122 122-122c25 0 54 10 74 25z m-83-69c-15 0-44 0-64-5-44-15-98-59-98-118v-225h98 245v245c0 93-127 103-181 103z" horiz-adv-x="1000" />

<glyph glyph-name="line-arrow-left" unicode="&#xe037;" d="M990 391v-82h-735v-204l-245 245 245 245v-204h735z" horiz-adv-x="1000" />

<glyph glyph-name="payment" unicode="&#xe038;" d="M737 316c-39 34-103 69-191 98v201c74-5 137-25 191-54v147c-39 20-108 29-191 34v98h-88v-98c-78-10-137-29-181-69-44-44-69-88-69-147 0-54 20-98 54-132 34-34 98-69 196-103v-196c-34 0-78 10-127 25-49 15-83 29-108 49v-147c73-34 147-49 230-49v-113h88v118c78 10 142 29 186 64 44 34 64 83 64 142 5 53-15 97-54 132z m-279 127c-59 25-88 59-88 93 0 44 29 69 83 78v-172h5z m88-343v162c59-25 88-49 88-83 0-45-29-69-88-79z" horiz-adv-x="1000" />

<glyph glyph-name="line-mail" unicode="&#xe039;" d="M874 737h-748c-64 0-116-52-116-116v-541c0-64 52-116 116-116h747c64 0 116 52 116 116v541c1 64-51 116-115 116z m0-671h-748c-9 0-18 6-18 14v470l338-297c7-6 16-9 25-9h57c9 0 18 3 25 9l338 297v-470c0-8-8-14-17-14z m-374 279l-329 289h658l-329-289z" horiz-adv-x="1000" />

<glyph glyph-name="setting" unicode="&#xe040;" d="M941 453l-69 10c-5 25-15 44-29 69l39 59c20 25 15 59-5 78l-59 59c-10 10-24 20-44 20-15 0-25-5-34-10l-59-44c-24 10-44 20-69 29l-10 69c-4 28-29 48-58 48h-88c-29 0-54-20-59-49l-15-73c-20-5-44-15-64-24l-58 38c-10 10-20 10-34 10-15 0-29-5-44-15l-59-64c-25-20-25-54-10-78l44-54c-15-24-20-44-29-69l-69-10c-29-4-49-29-49-58v-88c0-29 20-54 49-59l69-10c5-25 15-44 29-69l-39-54c-20-24-15-59 5-78l59-59c10-10 25-20 44-20 15 0 24 5 34 10l59 39c20-10 44-20 64-24l15-73c5-29 29-49 59-49h88c29 0 54 20 59 49l10 69c25 5 44 15 69 29l59-39c10-10 25-10 34-10 15 0 29 5 44 20l59 59c20 20 24 54 5 78l-39 54c10 20 20 44 29 69l69 10c29 5 49 29 49 59v88c-2 28-22 53-51 58z m-441-299c-108 0-196 88-196 196s88 196 196 196 196-88 196-196-88-196-196-196z" horiz-adv-x="1000" />

<glyph glyph-name="logout" unicode="&#xe041;" d="M829 670l-21 15c-21 5-46 0-62-15-15-15-21-41-15-62l21-31c129-139 124-356-5-490-67-67-150-103-242-103s-181 36-243 103c-134 139-134 361 0 500 21 26 21 62 0 83-21 21-52 21-77 5l-16-5-5-5v-5c-175-186-170-480 5-660 88-88 206-139 330-139s242 52 330 139c181 185 181 484 0 670z m-330-346c31 0 52 26 52 57v402c0 31-26 57-52 57-31 0-52-26-52-57v-397c1-36 21-62 52-62z" horiz-adv-x="1000" />

<glyph glyph-name="man" unicode="&#xe042;" d="M729 203c-1 0-115-3-132 118 19 13 36 30 52 50 30 40 49 90 56 144 2 2 4 5 6 8 12 29 19 60 19 92-1 123-95 224-211 224-30 0-60-7-88-21-11 0-21-2-31-5-48-14-87-49-110-98-22-48-27-105-12-160 3-12 7-23 11-34 1-3 3-5 5-8 11-84 51-154 106-193-15-121-130-117-130-117-82-3-148-70-148-151v-170c0-12 10-22 22-22h196 320 197c12 0 22 10 22 22v170c0 81-67 148-150 151z m-318 568c8 2 17 4 26 4 3 0 6 1 9 3 24 12 47 18 71 18 92 0 166-81 166-180 0-3 0-6 0-9-18 18-42 29-70 29h-153c-9 0-18 3-25 8-6 5-11 11-14 18-4 11-15 18-27 17-12-1-22-9-25-20-9-33-26-64-51-89-20 89 21 180 93 201z m-18-382c-29 35-48 82-54 134 28 25 51 56 65 90 2-2 5-4 7-6 15-11 33-17 52-17h153c22 0 40-13 49-31l0 0c0-125-73-226-164-226-41 0-78 20-108 56z m51-90c18-6 36-10 56-10 19 0 38 3 56 10 8-42 32-79 65-104l-119-165c-1-1-2-2-3-2-1 0-2 1-3 2l-118 165c33 25 57 62 66 104z m390-396h-175-319-175v148c0 59 49 107 109 107 1 0 37 1 65 14l120-168c9-13 24-20 40-20s31 8 40 20l120 168c32-14 64-14 65-14 60 0 109-48 109-107v-148z" horiz-adv-x="1000" />

<glyph glyph-name="user" unicode="&#xe043;" d="M853 202c-19 23-42 37-71 43-66 16-66 35-133 50l-78-272c0 0-5-17-16-36l-27 217 16 38c0 13-10 23-23 23h-43c-13 0-23-10-23-23l16-38-27-224c-15 21-23 45-23 45l-71 272c0 0 0 0-1 0-11 0-108-42-124-48-52-19-104-53-103-114v-185c0-55 31-89 111-89h535c70 0 111 34 111 89v176c0 25-10 57-26 76z m-19-254c0-30-22-45-67-45h-535c-67 0-67 25-67 45v186c0 30 25 54 74 72 5 2 16 6 33 13 12 5 29 12 46 19l59-225c0-1 1-2 1-4 1-3 11-30 28-55 8-12 22-19 37-19 4 0 7 0 11 1 18 4 31 19 34 38l13 102 12-95c2-19 17-35 36-38 3-1 6-1 9-1 16 0 31 9 39 23 12 22 19 42 20 45l65 229c6-3 11-5 17-8 18-9 38-20 76-29 20-5 34-13 47-28 8-10 15-31 15-48v-178h-3z m-515 572c29-123 121-193 180-193 61 0 156 53 183 193 15 1 28 12 36 44 10 39-1 60-20 60-1 0-3 0-4 0-1 0-3-1-4-1 1 20 11 40 10 60 1 63-18 124-109 135-5 1-11 2-17 4-21 6-45 17-74 17-175 0-201-77-200-156 0-20 9-39 10-60-1 0-3 1-5 1-1 0-3 0-4 0-18 0-29-22-20-60 8-34 22-44 38-44z m18 69c11 9 17 22 16 36 0 15-4 27-6 38-2 8-4 15-3 20v1c-1 37 6 61 22 76 23 23 68 34 134 34 15 0 30-5 46-10 5-2 11-4 16-5 2-1 3-1 5-1 5-1 9-2 14-3 2 0 4-1 6-1 53-7 71-30 70-90 0-1 0-1 0-2 0-4-2-12-4-19-3-11-6-24-7-38 0-12 4-24 12-33 5-5 12-9 18-11 0-2-1-4-1-6-1-6-3-9-4-12-17-4-30-18-33-35-22-115-95-157-139-157-36 0-112 53-137 159-4 17-18 30-35 33-1 2-2 6-4 11-1 2-1 4-1 6 6 3 11 5 15 9z" horiz-adv-x="1000" />

<glyph glyph-name="tutors" unicode="&#xe044;" d="M133 635c18-76 75-120 112-120 38 0 97 33 113 120 9 1 17 7 22 27 6 24-1 37-12 37-1 0-2 0-3 0-1 0-2 0-3 0 0 13 7 25 6 37 1 39-11 77-68 84-3 1-7 2-11 2-13 4-28 11-46 11-109 0-125-48-124-97 0-13 6-24 6-37-1 0-2 0-3 0-1 0-2 0-3 0-11 0-18-13-12-37 7-20 16-27 26-27z m11 43c7 5 10 14 10 22 0 9-2 17-4 23-1 5-2 9-2 12v1c0 23 4 38 13 47 14 14 42 21 83 21 10 0 19-3 29-6 3-1 7-2 10-3 1 0 2-1 3-1 3-1 6-1 8-2 1 0 2-1 3-1 33-4 44-19 44-56v-1c0-3-1-7-2-12-2-7-4-15-4-24 0-7 3-15 8-20 3-3 7-6 11-7 0-1 0-2-1-4-1-3-2-6-2-7-10-3-18-11-20-22-13-72-59-98-86-98-22 0-69 33-85 99-3 11-11 19-22 21-1 1-1 4-2 7 0 1-1 3-1 4 3 3 6 5 9 7z m276-213c-41 10-41 22-83 31l-48-169c0 0-3-11-10-22l-17 134 10 23c0 8-6 14-14 14h-27c-8 0-14-6-14-14l10-23-17-139c-9 13-14 28-14 28l-44 169c0 0 0 0-1 0-7 0-67-26-77-30-32-12-64-33-64-71v-115c0-34 19-55 69-55h332c44 0 69 21 69 55v110c0 15-6 35-16 47-12 15-26 23-44 27z m32-185c0-18-14-28-41-28h-332c-41 0-41 15-41 28v115c0 18 15 34 46 45 3 1 10 4 20 8 7 3 18 8 28 12l36-140c0-1 0-1 1-2 1-2 7-18 17-34 5-8 14-12 23-12 2 0 4 0 7 1 11 3 19 12 21 23l8 63 7-59c1-12 10-21 22-24 2 0 4-1 5-1 10 0 19 5 24 14 8 14 12 26 12 28l40 142c4-2 7-3 10-5 11-6 23-12 47-18 13-3 21-8 29-18 5-6 9-19 9-29v-109h2z m1 427c57 19 120 15 177-12 50-23 90-62 113-110l-6 3c-9 4-20 1-24-8s0-19 9-24l48-22c3-1 5-2 8-2 7 0 13 4 16 10l0 0 21 45c4 9 0 19-9 24-9 4-20 1-24-8l-4-8c-27 58-74 105-134 133-65 31-138 35-204 13-5-2-8-5-10-9s-2-9 0-14c4-9 14-14 23-11z m3-723c-43-4-86 4-125 22-50 23-90 62-113 110l6-3c9-4 20-1 24 8s0 19-9 24l-48 22c-9 4-20 1-24-8l0 0-21-45c-4-9 0-19 9-24 9-4 20-1 24 8l4 8c27-58 74-105 134-133 38-18 78-27 119-27 7 0 15 0 22 1 3 0 6 3 6 6v24c0 2-1 3-2 4-3 2-5 3-6 3z m439 99l0 0c-7 0-68 2-79 68 12 8 22 18 31 31 19 25 31 55 35 89 1 1 3 3 3 5 8 18 12 38 12 58 0 78-60 141-134 141-19 0-38-4-55-13-7-1-13-2-19-3-31-9-55-31-70-62-14-30-17-66-8-101 2-7 4-14 7-21 1-2 2-3 3-5 7-51 31-94 66-118-11-66-72-68-79-68l0 0c-52-2-93-43-95-93v-1-107c0-9 8-17 17-17h443c9 0 17 7 17 17v103c0 53-42 95-95 97z m-197 343c5 1 10 2 15 2 2 0 5 1 7 2 14 7 28 11 43 11 55 0 100-48 100-107-11 9-26 14-40 14h-95c-5 0-10 2-14 4-3 2-6 6-8 10-3 8-11 13-20 12s-16-5-18-14c-5-18-14-35-27-50-9 53 15 104 57 116z m-10-230c-17 21-29 49-33 79 16 14 29 32 38 52l1-1c10-7 22-11 34-11h95c12 0 22-7 27-17 0-75-44-136-99-136-23 1-45 13-63 34z m31-61c21-7 44-7 65 0 5-24 19-45 39-61l-71-99-71 99c19 16 33 37 38 61z m237-237h-409v88c0 35 29 63 65 63 0 0 22 0 40 8l73-101c6-9 16-14 27-14s21 5 27 14l73 101c20-8 39-8 39-8 36 0 65-28 65-63v-88z" horiz-adv-x="1000" />

<glyph glyph-name="location" unicode="&#xe045;" d="M500 763c156 0 284-119 284-265 0-21 0-86-122-322-60-115-118-213-118-214-9-15-25-24-44-24-18 0-35 9-44 24-1 1-59 99-118 214-122 236-122 301-122 322 0 146 128 265 284 265m0-423c82 0 149 62 149 139s-67 139-149 139-149-62-149-139 67-139 149-139m0 500c-199 0-361-154-361-343 0-31 0-105 130-358 60-117 120-217 121-218 22-38 65-61 110-61s87 24 110 62c0 1 60 100 121 218 130 253 130 326 130 358 0 188-162 342-361 342l0 0z m0-423c-39 0-71 28-71 62s32 62 71 62c20 0 38-7 52-20 12-11 19-26 19-42 0-34-32-62-71-62l0 0z" horiz-adv-x="1000" />

<glyph glyph-name="group" unicode="&#xe046;" d="M143 469c20-85 84-134 125-134 42 0 108 37 127 134 10 1 19 8 25 30 7 27-1 42-14 42-1 0-2 0-3 0s-2 0-3 0c0 14 7 28 7 41 1 44-12 86-76 94-4 1-8 2-12 2-15 4-32 12-52 12-122 0-140-53-139-108 0-14 6-27 7-41-1 0-2 0-3 0s-2 0-3 0c-13 0-20-15-14-42 7-23 17-30 28-30z m12 47c8 6 12 15 11 25 0 10-3 19-4 26-1 5-2 10-2 14v1c0 26 4 42 15 53 16 16 47 24 93 24 11 0 21-3 32-7 4-1 7-2 11-4 1 0 2-1 4-1 3-1 6-1 9-2 1 0 3-1 4-1 37-5 49-21 49-63v-1c0-3-1-8-3-13-2-8-4-16-5-27 0-8 3-17 9-23 4-4 8-6 13-8 0-1-1-3-1-4-1-4-2-6-3-8-12-3-21-12-23-24-15-80-66-109-96-109-25 0-78 37-95 111-3 12-13 21-24 23-1 2-2 4-3 8 0 2-1 3-1 4 4 2 7 4 10 6z m737-268c-1 0-80-2-92 82 13 9 25 21 36 35 21 28 34 62 39 100 2 1 3 3 4 5 9 20 13 42 13 64-1 86-66 156-147 156-21 0-42-5-61-14-7-1-15-2-22-4-33-9-60-34-76-68-15-34-18-73-9-111 2-8 5-16 8-24 1-2 2-4 4-5 8-59 36-107 75-134-8-57-47-74-71-79v-31c9 1 19 4 28 8l83-117c6-9 17-14 28-14 11 0 21 5 28 14l83 117c23-9 45-9 45-9 42 0 76-33 76-74v-103h-371v-32h386c9 0 16 7 16 15v118c0 57-46 104-103 105z m-221 395c6 2 12 3 18 3 2 0 5 1 7 2 16 8 32 12 50 12 64 0 115-56 115-125 0-2 0-4 0-6-12 12-29 20-48 20h-107c-6 0-12 2-17 6-4 3-8 7-10 12-3 8-11 12-19 12-8-1-15-6-17-14-6-23-18-45-35-62-16 62 12 125 63 140z m-14-265c-20 24-33 57-38 93 20 17 35 39 45 62 2-1 3-3 5-4 10-8 23-12 36-12h106c15 0 28-9 34-22l0 0c0-86-51-157-113-157-27 1-54 15-75 40z m77-250c-1-1-1-1-2-1s-2 0-2 1l-82 115c23 18 40 43 45 72 12-4 25-7 39-7 13 0 26 2 39 7 6-29 22-55 45-72l-82-115z m-270 150c-46 11-46 24-92 34l-54-189c0 0-4-12-11-25l-19 150 11 26c0 9-7 16-16 16h-30c-9 0-16-7-16-16l11-26-19-156c-10 15-16 31-16 31l-49 189c0 0 0 0-1 0-8 0-75-29-86-33-36-13-72-37-72-79v-129c0-38 21-62 77-62h371c49 0 77 24 77 62v124c0 17-7 39-18 53-12 16-28 26-48 30z m36-206c0-21-16-31-46-31h-371c-46 0-46 17-46 31v129c0 21 17 37 51 50 4 1 11 4 23 9 8 3 20 8 32 13l41-156c0-1 0-2 1-2 1-2 7-21 20-38 6-9 15-13 25-13 2 0 5 0 7 1 12 3 22 14 23 26l9 71 8-66c2-13 12-24 25-27 2 0 4-1 6-1 11 0 21 6 27 16 9 15 13 29 14 32l45 159c4-2 8-4 12-6 12-6 26-14 53-20 14-3 24-9 32-20 6-7 11-22 11-33v-124h-2z" horiz-adv-x="1000" />

<glyph glyph-name="free-session" unicode="&#xe047;" d="M433 235c-2 4-4 8-7 11-3 3-7 6-12 8-5 2-10 3-16 3h-47v-70h46c11 0 21 3 28 10 7 7 11 15 11 25 0 4-1 9-3 13z m567 65v452c0 24-26 48-50 48h-150c0 24-30 50-54 50-24 0-46-26-46-50h-150c0 24-26 50-50 50-24 0-50-26-50-50h-150c0 24-22 50-46 50-24 0-54-26-54-50h-150c-24 0-50-24-50-48v-452h0v-50h0v-352c0-24 26-48 50-48h900c24 0 50 24 50 48v352h0l0 50 0 0z m-900 400h100v-50c0-24 30-33 54-33 24 0 46 10 46 33v50h150v-50c0-24 26-33 50-33 24 0 50 10 50 33v50h150v-50c0-24 22-33 46-33 24 0 54 10 54 33v50h100v-150h-800v150z m150-444h-105v-61h95v-45h-95v-100h-45v250h150v-44z m250-206h-57l-68 94h-23v-94h-50v250h97c13 0 25-2 36-6 11-4 20-9 28-16 8-7 14-15 18-25 4-10 6-20 6-32 0-8-1-16-4-24-3-7-7-14-12-20-5-6-11-11-18-16-7-5-14-8-22-11l0-2 71-96v-2z m200 206h-105v-58h95v-45h-95v-58h105v-45h-150v250h150v-44z m201 0h-107v-58h96v-45h-95v-58h106v-45h-152v250h151v-44z" horiz-adv-x="1000" />

<glyph glyph-name="preference" unicode="&#xe048;" d="M600 200h300v100h100v100h-100v100h-300v-100h-600v-100h600v-100z m100 200h100v-100h-100v100z m-250 350v100h-300v-100h-150v-100h150v-100h300v100h550v100h-550z m-100-100h-100v100h100v-100z m150-500h-300v-100h-200v-100h200v-100h300v100h500v100h-500v100z m-100-200h-100v100h100v-100z" horiz-adv-x="1000" />
</font>
</defs>
</svg>
